<mxfile host="65bd71144e">
    <diagram id="uNC0XxtM1fcTX4ZFAUFy" name="Page-1">
        <mxGraphModel dx="1546" dy="1057" grid="1" gridSize="10" guides="1" tooltips="1" connect="1" arrows="1" fold="1" page="1" pageScale="1" pageWidth="1600" pageHeight="900" math="0" shadow="0">
            <root>
                <mxCell id="0"/>
                <mxCell id="1" parent="0"/>
                <mxCell id="42" style="edgeStyle=none;html=1;exitX=0.5;exitY=0.5;exitDx=0;exitDy=0;exitPerimeter=0;fontSize=20;entryX=0;entryY=0.75;entryDx=0;entryDy=0;" parent="1" source="4" target="41" edge="1">
                    <mxGeometry relative="1" as="geometry">
                        <mxPoint x="30" y="60" as="targetPoint"/>
                        <Array as="points">
                            <mxPoint x="20" y="60"/>
                            <mxPoint x="20" y="410"/>
                        </Array>
                    </mxGeometry>
                </mxCell>
                <mxCell id="4" value="userine" style="shape=umlActor;verticalLabelPosition=bottom;verticalAlign=top;html=1;outlineConnect=0;fontSize=24;" parent="1" vertex="1">
                    <mxGeometry x="120" y="20" width="30" height="60" as="geometry"/>
                </mxCell>
                <mxCell id="10" style="edgeStyle=none;html=1;exitX=0.5;exitY=0.5;exitDx=0;exitDy=0;exitPerimeter=0;fontSize=24;entryX=0;entryY=0.5;entryDx=0;entryDy=0;" parent="1" source="5" target="41" edge="1">
                    <mxGeometry relative="1" as="geometry">
                        <mxPoint x="90" y="375" as="targetPoint"/>
                        <Array as="points">
                            <mxPoint x="60" y="80"/>
                            <mxPoint x="40" y="120"/>
                            <mxPoint x="40" y="370"/>
                        </Array>
                    </mxGeometry>
                </mxCell>
                <mxCell id="5" value="userine" style="shape=umlActor;verticalLabelPosition=bottom;verticalAlign=top;html=1;outlineConnect=0;fontSize=24;" parent="1" vertex="1">
                    <mxGeometry x="230" y="20" width="30" height="60" as="geometry"/>
                </mxCell>
                <mxCell id="12" style="edgeStyle=none;html=1;exitX=0.5;exitY=0.5;exitDx=0;exitDy=0;exitPerimeter=0;entryX=1;entryY=0.5;entryDx=0;entryDy=0;fontSize=24;" parent="1" source="6" target="41" edge="1">
                    <mxGeometry relative="1" as="geometry">
                        <mxPoint x="410" y="375" as="targetPoint"/>
                        <Array as="points">
                            <mxPoint x="440" y="80"/>
                            <mxPoint x="570" y="170"/>
                        </Array>
                    </mxGeometry>
                </mxCell>
                <mxCell id="6" value="userine" style="shape=umlActor;verticalLabelPosition=bottom;verticalAlign=top;html=1;outlineConnect=0;fontSize=24;" parent="1" vertex="1">
                    <mxGeometry x="330" y="20" width="30" height="60" as="geometry"/>
                </mxCell>
                <mxCell id="17" value="q+a table" style="shape=cylinder3;whiteSpace=wrap;html=1;boundedLbl=1;backgroundOutline=1;size=15;fontSize=24;" parent="1" vertex="1">
                    <mxGeometry x="1500" y="120" width="60" height="100" as="geometry"/>
                </mxCell>
                <mxCell id="23" value="Quizz Session" style="swimlane;whiteSpace=wrap;html=1;fontSize=20;" parent="1" vertex="1">
                    <mxGeometry x="60" y="220" width="1080" height="660" as="geometry">
                        <mxRectangle x="60" y="300" width="180" height="40" as="alternateBounds"/>
                    </mxGeometry>
                </mxCell>
                <mxCell id="26" value="Start Round" style="ellipse;whiteSpace=wrap;html=1;fontSize=20;" parent="23" vertex="1">
                    <mxGeometry x="670" y="30" width="320" height="110" as="geometry"/>
                </mxCell>
                <mxCell id="33" style="edgeStyle=none;html=1;entryX=0.5;entryY=1;entryDx=0;entryDy=0;fontSize=20;" parent="23" source="68" target="26" edge="1">
                    <mxGeometry relative="1" as="geometry"/>
                </mxCell>
                <mxCell id="34" value="start new round" style="edgeLabel;html=1;align=center;verticalAlign=middle;resizable=0;points=[];fontSize=20;" parent="33" vertex="1" connectable="0">
                    <mxGeometry x="-0.3515" y="2" relative="1" as="geometry">
                        <mxPoint as="offset"/>
                    </mxGeometry>
                </mxCell>
                <mxCell id="57" style="edgeStyle=none;html=1;exitX=0;exitY=0.5;exitDx=0;exitDy=0;entryX=0.808;entryY=0.523;entryDx=0;entryDy=0;fontSize=18;dashed=1;entryPerimeter=0;" parent="23" source="31" target="68" edge="1">
                    <mxGeometry relative="1" as="geometry"/>
                </mxCell>
                <mxCell id="58" value="show Result()" style="edgeLabel;html=1;align=center;verticalAlign=middle;resizable=0;points=[];fontSize=18;" parent="57" vertex="1" connectable="0">
                    <mxGeometry x="-0.3134" y="-1" relative="1" as="geometry">
                        <mxPoint as="offset"/>
                    </mxGeometry>
                </mxCell>
                <mxCell id="31" value="&lt;ol&gt;&lt;li&gt;Apply Changes to userines&lt;/li&gt;&lt;li&gt;then show result&lt;/li&gt;&lt;/ol&gt;" style="ellipse;whiteSpace=wrap;html=1;fontSize=20;align=center;" parent="23" vertex="1">
                    <mxGeometry x="730" y="272.5" width="300" height="140" as="geometry"/>
                </mxCell>
                <mxCell id="39" value="" style="ellipse;whiteSpace=wrap;html=1;aspect=fixed;fontSize=20;fillStyle=dashed;gradientDirection=radial;" parent="23" vertex="1">
                    <mxGeometry x="15" y="30" width="595" height="595" as="geometry"/>
                </mxCell>
                <mxCell id="40" value="&lt;font style=&quot;font-size: 24px;&quot;&gt;Frage:&lt;br&gt;Text, &lt;br&gt;Bild, &lt;br&gt;&lt;/font&gt;&lt;div style=&quot;font-size: 24px;&quot;&gt;&lt;span style=&quot;background-color: initial;&quot;&gt;&lt;font style=&quot;font-size: 24px;&quot;&gt;Audio&amp;nbsp;&lt;/font&gt;&lt;/span&gt;&lt;/div&gt;" style="rounded=0;whiteSpace=wrap;html=1;align=left;" parent="23" vertex="1">
                    <mxGeometry x="180" y="90" width="310" height="120" as="geometry"/>
                </mxCell>
                <mxCell id="45" style="edgeStyle=none;html=1;exitX=0.5;exitY=1;exitDx=0;exitDy=0;entryX=0.5;entryY=0;entryDx=0;entryDy=0;fontSize=20;" parent="23" source="41" target="43" edge="1">
                    <mxGeometry relative="1" as="geometry"/>
                </mxCell>
                <mxCell id="41" value="&lt;font style=&quot;font-size: 24px;&quot;&gt;Anwortmaske&lt;br&gt;multiple choice&lt;br&gt;+ pick One&lt;br&gt;+ pick multible&lt;br&gt;+ pick none&lt;br&gt;+ pick blind&lt;/font&gt;" style="rounded=1;whiteSpace=wrap;html=1;align=left;" parent="23" vertex="1">
                    <mxGeometry x="75" y="220" width="320" height="190" as="geometry"/>
                </mxCell>
                <mxCell id="47" style="edgeStyle=none;html=1;exitX=1;exitY=0.5;exitDx=0;exitDy=0;entryX=0.5;entryY=1;entryDx=0;entryDy=0;fontSize=20;" parent="23" source="44" target="31" edge="1">
                    <mxGeometry relative="1" as="geometry"/>
                </mxCell>
                <mxCell id="62" value="pushRoundResult" style="edgeLabel;html=1;align=center;verticalAlign=middle;resizable=0;points=[];fontSize=18;" parent="47" vertex="1" connectable="0">
                    <mxGeometry x="0.093" y="-1" relative="1" as="geometry">
                        <mxPoint as="offset"/>
                    </mxGeometry>
                </mxCell>
                <mxCell id="44" value="Validate Answers" style="ellipse;whiteSpace=wrap;html=1;fontSize=20;" parent="23" vertex="1">
                    <mxGeometry x="320" y="530" width="320" height="110" as="geometry"/>
                </mxCell>
                <mxCell id="46" style="edgeStyle=none;html=1;exitX=0.5;exitY=1;exitDx=0;exitDy=0;entryX=0;entryY=0.5;entryDx=0;entryDy=0;fontSize=20;" parent="23" source="43" target="44" edge="1">
                    <mxGeometry relative="1" as="geometry"/>
                </mxCell>
                <mxCell id="43" value="All Session Userines picked an Answer" style="ellipse;whiteSpace=wrap;html=1;fontSize=24;" parent="23" vertex="1">
                    <mxGeometry x="75" y="430" width="350" height="110" as="geometry"/>
                </mxCell>
                <mxCell id="29" style="edgeStyle=none;html=1;exitX=0;exitY=0.5;exitDx=0;exitDy=0;fontSize=20;" parent="23" source="26" target="39" edge="1">
                    <mxGeometry relative="1" as="geometry">
                        <mxPoint x="380" y="180" as="targetPoint"/>
                    </mxGeometry>
                </mxCell>
                <mxCell id="30" value="show Q&amp;amp;A" style="edgeLabel;html=1;align=center;verticalAlign=middle;resizable=0;points=[];fontSize=20;" parent="29" vertex="1" connectable="0">
                    <mxGeometry x="-0.3116" y="-1" relative="1" as="geometry">
                        <mxPoint as="offset"/>
                    </mxGeometry>
                </mxCell>
                <mxCell id="59" value="GUI" style="text;html=1;strokeColor=none;fillColor=none;align=center;verticalAlign=middle;whiteSpace=wrap;rounded=0;fillStyle=dashed;fontSize=18;" parent="23" vertex="1">
                    <mxGeometry x="290" y="30" width="60" height="30" as="geometry"/>
                </mxCell>
                <mxCell id="68" value="showResults" style="ellipse;whiteSpace=wrap;html=1;fontSize=20;" parent="23" vertex="1">
                    <mxGeometry x="460" y="272.5" width="130" height="110" as="geometry"/>
                </mxCell>
                <mxCell id="27" style="edgeStyle=none;html=1;exitX=1;exitY=0.5;exitDx=0;exitDy=0;entryX=0;entryY=0.5;entryDx=0;entryDy=0;fontSize=20;" parent="1" source="26" target="54" edge="1">
                    <mxGeometry relative="1" as="geometry">
                        <mxPoint x="1220" y="250" as="targetPoint"/>
                    </mxGeometry>
                </mxCell>
                <mxCell id="28" value="getRandomQ&amp;amp;A()" style="edgeLabel;html=1;align=center;verticalAlign=middle;resizable=0;points=[];fontSize=20;" parent="27" vertex="1" connectable="0">
                    <mxGeometry x="-0.2084" y="-2" relative="1" as="geometry">
                        <mxPoint as="offset"/>
                    </mxGeometry>
                </mxCell>
                <mxCell id="48" style="edgeStyle=none;html=1;exitX=1;exitY=0.5;exitDx=0;exitDy=0;entryX=0;entryY=0.5;entryDx=0;entryDy=0;fontSize=20;" parent="1" source="31" target="55" edge="1">
                    <mxGeometry relative="1" as="geometry">
                        <mxPoint x="1270" y="350" as="targetPoint"/>
                        <Array as="points"/>
                    </mxGeometry>
                </mxCell>
                <mxCell id="56" value="applyChanges()" style="edgeLabel;html=1;align=center;verticalAlign=middle;resizable=0;points=[];fontSize=18;" parent="48" vertex="1" connectable="0">
                    <mxGeometry x="0.3063" y="-2" relative="1" as="geometry">
                        <mxPoint as="offset"/>
                    </mxGeometry>
                </mxCell>
                <mxCell id="49" value="userines table" style="shape=cylinder3;whiteSpace=wrap;html=1;boundedLbl=1;backgroundOutline=1;size=15;fontSize=24;" parent="1" vertex="1">
                    <mxGeometry x="1500" y="250" width="60" height="100" as="geometry"/>
                </mxCell>
                <mxCell id="51" value="" style="endArrow=none;html=1;fontSize=20;entryX=0;entryY=0.5;entryDx=0;entryDy=0;entryPerimeter=0;exitX=1;exitY=0.5;exitDx=0;exitDy=0;" parent="1" source="55" target="49" edge="1">
                    <mxGeometry width="50" height="50" relative="1" as="geometry">
                        <mxPoint x="1420" y="300" as="sourcePoint"/>
                        <mxPoint x="1260" y="470" as="targetPoint"/>
                    </mxGeometry>
                </mxCell>
                <mxCell id="52" value="" style="endArrow=none;html=1;fontSize=20;entryX=0;entryY=0.5;entryDx=0;entryDy=0;entryPerimeter=0;exitX=1;exitY=0.5;exitDx=0;exitDy=0;" parent="1" target="17" edge="1" source="54">
                    <mxGeometry width="50" height="50" relative="1" as="geometry">
                        <mxPoint x="1420" y="205.55555555555566" as="sourcePoint"/>
                        <mxPoint x="1370" y="510" as="targetPoint"/>
                    </mxGeometry>
                </mxCell>
                <mxCell id="53" value="Backend" style="swimlane;whiteSpace=wrap;html=1;fontSize=18;" parent="1" vertex="1">
                    <mxGeometry x="1240" y="100" width="200" height="770" as="geometry">
                        <mxRectangle x="1240" y="100" width="120" height="40" as="alternateBounds"/>
                    </mxGeometry>
                </mxCell>
                <mxCell id="54" value="getRandomQAndA()" style="rounded=0;whiteSpace=wrap;html=1;fontSize=18;" parent="53" vertex="1">
                    <mxGeometry x="10" y="70" width="180" height="60" as="geometry"/>
                </mxCell>
                <mxCell id="55" value="applyChanges()" style="rounded=0;whiteSpace=wrap;html=1;fontSize=18;" parent="53" vertex="1">
                    <mxGeometry x="10" y="170" width="180" height="60" as="geometry"/>
                </mxCell>
                <mxCell id="69" value="Create table()" style="ellipse;whiteSpace=wrap;html=1;" vertex="1" parent="53">
                    <mxGeometry x="30" y="270" width="140" height="70" as="geometry"/>
                </mxCell>
                <mxCell id="70" value="Insert into Table ()" style="ellipse;whiteSpace=wrap;html=1;" vertex="1" parent="53">
                    <mxGeometry x="30" y="350" width="140" height="70" as="geometry"/>
                </mxCell>
                <mxCell id="71" value="read Table() #print" style="ellipse;whiteSpace=wrap;html=1;" vertex="1" parent="53">
                    <mxGeometry x="30" y="430" width="140" height="70" as="geometry"/>
                </mxCell>
                <mxCell id="60" value="round_history&lt;br&gt;table" style="shape=cylinder3;whiteSpace=wrap;html=1;boundedLbl=1;backgroundOutline=1;size=15;fontSize=24;" parent="1" vertex="1">
                    <mxGeometry x="1500" y="390" width="60" height="100" as="geometry"/>
                </mxCell>
                <mxCell id="61" value="" style="endArrow=none;html=1;fontSize=20;entryX=0;entryY=0;entryDx=0;entryDy=67.5;entryPerimeter=0;exitX=1;exitY=0.5;exitDx=0;exitDy=0;" parent="1" source="55" target="60" edge="1">
                    <mxGeometry width="50" height="50" relative="1" as="geometry">
                        <mxPoint x="1440" y="310" as="sourcePoint"/>
                        <mxPoint x="1510" y="310" as="targetPoint"/>
                    </mxGeometry>
                </mxCell>
                <mxCell id="66" style="edgeStyle=none;html=1;exitX=0.5;exitY=0.5;exitDx=0;exitDy=0;exitPerimeter=0;fontSize=18;entryX=0.5;entryY=0;entryDx=0;entryDy=0;" parent="1" source="65" target="26" edge="1">
                    <mxGeometry relative="1" as="geometry"/>
                </mxCell>
                <mxCell id="67" style="edgeStyle=none;html=1;exitX=0.5;exitY=0.5;exitDx=0;exitDy=0;exitPerimeter=0;entryX=1;entryY=0.75;entryDx=0;entryDy=0;fontSize=18;" parent="1" source="65" target="41" edge="1">
                    <mxGeometry relative="1" as="geometry">
                        <Array as="points">
                            <mxPoint x="600" y="190"/>
                        </Array>
                    </mxGeometry>
                </mxCell>
                <mxCell id="65" value="userine" style="shape=umlActor;verticalLabelPosition=bottom;verticalAlign=top;html=1;outlineConnect=0;fontSize=24;" parent="1" vertex="1">
                    <mxGeometry x="880" y="20" width="30" height="60" as="geometry"/>
                </mxCell>
            </root>
        </mxGraphModel>
    </diagram>
</mxfile>